<svg width="43" height="39" viewBox="0 0 43 39" fill="none" xmlns="http://www.w3.org/2000/svg">
<path d="M21.3678 1.71301C32.0329 1.71301 40.6619 9.73628 40.6619 19.6376C40.6619 29.539 32.0329 37.5773 21.3678 37.5773C10.7027 37.5773 2.07373 29.554 2.07373 19.6527C2.07373 9.7513 10.7027 1.71301 21.3678 1.71301Z" fill="#E74D89"/>
<path d="M21.3678 38.8544C9.95945 38.8544 0.684082 30.2452 0.684082 19.6527C0.684082 9.04515 9.95945 0.435913 21.3678 0.435913C32.7762 0.435913 42.0516 9.04515 42.0516 19.6377C42.0516 30.2302 32.7762 38.8544 21.3678 38.8544ZM38.8036 22.267C38.2057 22.0867 33.3418 20.7495 27.7992 21.5608C30.11 27.4506 31.0472 32.2585 31.2249 33.2502C35.2001 30.7711 38.028 26.8346 38.8036 22.267ZM28.2678 34.7677C28.0093 33.3253 26.9751 28.307 24.5027 22.3271C24.4704 22.3421 24.4219 22.3572 24.3896 22.3572C14.4194 25.5875 10.8482 32.0031 10.525 32.6041C13.5145 34.7677 17.2796 36.0598 21.3678 36.0598C23.8079 36.0748 26.151 35.6091 28.2678 34.7677ZM8.24658 30.6358C8.65056 30.0048 13.4983 22.5525 22.6121 19.8029C22.8383 19.7278 23.0807 19.6677 23.3069 19.6076C22.8706 18.6761 22.3859 17.7445 21.8688 16.828C13.0459 19.2771 4.48149 19.1719 3.70585 19.1569C3.70585 19.3221 3.68969 19.4874 3.68969 19.6527C3.70585 23.8747 5.41872 27.721 8.24658 30.6358ZM4.07751 16.3021C4.86931 16.3172 12.1409 16.3472 20.4144 14.3038C17.4896 9.46584 14.3224 5.40914 13.87 4.82317C8.90911 6.98674 5.22481 11.2237 4.07751 16.3021ZM17.2311 3.71133C17.7159 4.31232 20.9315 8.36903 23.824 13.3122C30.11 11.1186 32.7601 7.81311 33.0832 7.39241C29.9645 4.82317 25.8601 3.26058 21.3678 3.26058C19.9458 3.26058 18.5561 3.42586 17.2311 3.71133ZM35.0385 9.28554C34.6669 9.75131 31.7097 13.2822 25.1814 15.7613C25.5854 16.5425 25.9894 17.3389 26.361 18.1352C26.4903 18.4206 26.6196 18.7061 26.7488 18.9766C32.6308 18.2854 38.4643 19.3973 39.046 19.5024C38.9975 15.6411 37.5109 12.0802 35.0385 9.28554Z" fill="#B2215A"/>
</svg>
