<svg width="43" height="27" viewBox="0 0 43 27" fill="none" xmlns="http://www.w3.org/2000/svg">
<path d="M9.83253 17.0684C9.35385 17.1468 8.86674 17.1704 8.36286 17.233L6.82593 13.0332V17.4132C6.34725 17.4602 5.91054 17.5229 5.45703 17.5856V9.56213H6.73361L8.48041 14.1146V9.56213H9.83253V17.0684ZM12.478 12.5004C12.9987 12.5004 13.7966 12.4769 14.2753 12.4769V13.7305C13.6789 13.7305 12.9819 13.7305 12.478 13.754V15.6189C13.2675 15.5719 14.0569 15.5092 14.8547 15.4857V16.6922L11.1342 16.9665V9.56213H14.8547V10.8158H12.478V12.5004ZM19.8517 10.8158H18.4576V16.5827C18.0041 16.5827 17.5506 16.5827 17.1139 16.5983V10.8158H15.7198V9.56213H19.8518L19.8517 10.8158ZM22.0352 12.4142H23.8745V13.6679H22.0352V16.5122H20.7166V9.56213H24.4708V10.8158H22.0352V12.4142ZM26.6543 15.4152C27.4186 15.4308 28.1912 15.4857 28.9386 15.5249V16.7629C27.7377 16.6923 26.5367 16.6219 25.3106 16.5983V9.56213H26.6543V15.4152ZM30.0724 16.8491C30.5007 16.8726 30.9542 16.8961 31.3909 16.9431V9.56213H30.0724V16.8491ZM37.2782 9.56213L35.5733 13.378L37.2782 17.5856C36.7742 17.5229 36.2703 17.4367 35.7664 17.3583L34.8007 15.0391L33.8182 17.1704C33.331 17.0919 32.8607 17.0684 32.3737 17.0057L34.1037 13.3309L32.5416 9.56213H33.986L34.8678 11.6699L35.8085 9.56213H37.2782Z" fill="#D81F26"/>
</svg>
